<svg width="112" height="148" viewBox="0 0 112 148" fill="none" xmlns="http://www.w3.org/2000/svg">
<rect x="0.5" y="30.5" width="111" height="111" rx="55.5" fill="#161228"/>
<rect x="0.5" y="30.5" width="111" height="111" rx="55.5" stroke="#FFD700"/>
<path fill-rule="evenodd" clip-rule="evenodd" d="M72.8007 74.8C72.8007 84.0784 65.2791 91.6 56.0007 91.6C46.7223 91.6 39.2007 84.0784 39.2007 74.8C39.2007 65.5216 46.7223 58 56.0007 58C65.2791 58 72.8007 65.5216 72.8007 74.8ZM67.2007 74.8C67.2007 80.9856 62.1863 86 56.0007 86C49.8151 86 44.8007 80.9856 44.8007 74.8C44.8007 68.6144 49.8151 63.6 56.0007 63.6C62.1863 63.6 67.2007 68.6144 67.2007 74.8Z" fill="#4F378A"/>
<path d="M56.0007 100C37.8724 100 22.4267 110.72 16.543 125.738C17.9763 127.161 19.4862 128.507 21.0659 129.77C25.4472 115.982 39.1915 105.6 56.0007 105.6C72.8099 105.6 86.5542 115.982 90.9355 129.77C92.5152 128.507 94.0251 127.161 95.4584 125.738C89.5748 110.72 74.129 100 56.0007 100Z" fill="#4F378A"/>
<circle cx="56" cy="139" r="9" fill="#FFD700"/>
<path d="M57.0449 135.876V143H55.6387V137.497L53.9492 138.034V136.926L56.8936 135.876H57.0449Z" fill="white"/>
<path d="M50.5 22H61.5M53.5 14H58.5M60.7 18.98H51.3C50.88 18.98 50.41 18.65 50.27 18.25L46.13 6.66999C45.54 5.00999 46.23 4.49999 47.65 5.51999L51.55 8.30999C52.2 8.75999 52.94 8.52999 53.22 7.79999L54.98 3.10999C55.54 1.60999 56.47 1.60999 57.03 3.10999L58.79 7.79999C59.07 8.52999 59.81 8.75999 60.45 8.30999L64.11 5.69999C65.67 4.57999 66.42 5.14999 65.78 6.95999L61.74 18.27C61.59 18.65 61.12 18.98 60.7 18.98Z" stroke="#BA9F0F" stroke-width="1.5" stroke-linecap="round" stroke-linejoin="round"/>
</svg>
