<svg width="112" height="112" viewBox="0 0 112 112" fill="none" xmlns="http://www.w3.org/2000/svg">
<rect width="112" height="112" rx="56" fill="#161228"/>
<path fill-rule="evenodd" clip-rule="evenodd" d="M72.8007 44.8C72.8007 54.0784 65.2791 61.6 56.0007 61.6C46.7223 61.6 39.2007 54.0784 39.2007 44.8C39.2007 35.5216 46.7223 28 56.0007 28C65.2791 28 72.8007 35.5216 72.8007 44.8ZM67.2007 44.8C67.2007 50.9856 62.1863 56 56.0007 56C49.8151 56 44.8007 50.9856 44.8007 44.8C44.8007 38.6144 49.8151 33.6 56.0007 33.6C62.1863 33.6 67.2007 38.6144 67.2007 44.8Z" fill="#4F378A"/>
<path d="M56.0007 70C37.8724 70 22.4267 80.7196 16.543 95.7377C17.9763 97.161 19.4862 98.5073 21.0659 99.7698C25.4472 85.9815 39.1915 75.6 56.0007 75.6C72.8099 75.6 86.5542 85.9816 90.9355 99.7698C92.5152 98.5073 94.0251 97.161 95.4584 95.7378C89.5748 80.7196 74.129 70 56.0007 70Z" fill="#4F378A"/>
</svg>
