<svg width="72" height="77" viewBox="0 0 72 77" fill="none" xmlns="http://www.w3.org/2000/svg">
<rect x="0.5" y="0.5" width="71" height="70" rx="35" fill="#161228"/>
<rect x="0.5" y="0.5" width="71" height="70" rx="35" stroke="#C0C0C0"/>
<path fill-rule="evenodd" clip-rule="evenodd" d="M46.8004 28.4C46.8004 34.2818 41.9651 39.05 36.0004 39.05C30.0358 39.05 25.2004 34.2818 25.2004 28.4C25.2004 22.5182 30.0358 17.75 36.0004 17.75C41.9651 17.75 46.8004 22.5182 46.8004 28.4ZM43.2004 28.4C43.2004 32.3212 39.9769 35.5 36.0004 35.5C32.024 35.5 28.8004 32.3212 28.8004 28.4C28.8004 24.4788 32.024 21.3 36.0004 21.3C39.9769 21.3 43.2004 24.4788 43.2004 28.4Z" fill="#4F378A"/>
<path d="M36.0004 44.375C24.3465 44.375 14.4171 51.1704 10.6348 60.6909C11.5562 61.5931 12.5268 62.4466 13.5424 63.2469C16.3589 54.5062 25.1945 47.925 36.0004 47.925C46.8064 47.925 55.642 54.5062 58.4585 63.2469C59.4741 62.4466 60.4447 61.5932 61.3661 60.6909C57.5838 51.1704 47.6544 44.375 36.0004 44.375Z" fill="#4F378A"/>
<circle cx="37" cy="69" r="6" fill="#D9D9D9"/>
<path d="M38.4883 70.3408V71H35.5703V70.4375L36.9502 68.958C37.0889 68.8037 37.1982 68.668 37.2783 68.5508C37.3584 68.4316 37.416 68.3252 37.4512 68.2314C37.4883 68.1357 37.5068 68.0449 37.5068 67.959C37.5068 67.8301 37.4854 67.7197 37.4424 67.6279C37.3994 67.5342 37.3359 67.4619 37.252 67.4111C37.1699 67.3604 37.0684 67.335 36.9473 67.335C36.8184 67.335 36.707 67.3662 36.6133 67.4287C36.5215 67.4912 36.4512 67.5781 36.4023 67.6895C36.3555 67.8008 36.332 67.9268 36.332 68.0674H35.4854C35.4854 67.8135 35.5459 67.5811 35.667 67.3701C35.7881 67.1572 35.959 66.9883 36.1797 66.8633C36.4004 66.7363 36.6621 66.6729 36.9648 66.6729C37.2637 66.6729 37.5156 66.7217 37.7207 66.8193C37.9277 66.915 38.084 67.0537 38.1895 67.2354C38.2969 67.415 38.3506 67.6299 38.3506 67.8799C38.3506 68.0205 38.3281 68.1582 38.2832 68.293C38.2383 68.4258 38.1738 68.5586 38.0898 68.6914C38.0078 68.8223 37.9082 68.9551 37.791 69.0898C37.6738 69.2246 37.5439 69.3643 37.4014 69.5088L36.6602 70.3408H38.4883Z" fill="#5B4F4F"/>
</svg>
