<svg width="72" height="77" viewBox="0 0 72 77" fill="none" xmlns="http://www.w3.org/2000/svg">
<rect x="0.5" y="0.5" width="71" height="70" rx="35" fill="#161228"/>
<rect x="0.5" y="0.5" width="71" height="70" rx="35" stroke="#CD7F32"/>
<path fill-rule="evenodd" clip-rule="evenodd" d="M46.8004 28.4C46.8004 34.2818 41.9651 39.05 36.0004 39.05C30.0358 39.05 25.2004 34.2818 25.2004 28.4C25.2004 22.5182 30.0358 17.75 36.0004 17.75C41.9651 17.75 46.8004 22.5182 46.8004 28.4ZM43.2004 28.4C43.2004 32.3212 39.9769 35.5 36.0004 35.5C32.024 35.5 28.8004 32.3212 28.8004 28.4C28.8004 24.4788 32.024 21.3 36.0004 21.3C39.9769 21.3 43.2004 24.4788 43.2004 28.4Z" fill="#4F378A"/>
<path d="M36.0004 44.375C24.3465 44.375 14.4171 51.1704 10.6348 60.6909C11.5562 61.5931 12.5268 62.4466 13.5424 63.2469C16.3589 54.5062 25.1945 47.925 36.0004 47.925C46.8064 47.925 55.642 54.5062 58.4585 63.2469C59.4741 62.4466 60.4447 61.5932 61.3661 60.6909C57.5838 51.1704 47.6544 44.375 36.0004 44.375Z" fill="#4F378A"/>
<circle cx="38" cy="69" r="6" fill="#A7682E"/>
<path d="M37.4346 68.501H37.8857C38.0303 68.501 38.1494 68.4766 38.2432 68.4277C38.3369 68.377 38.4062 68.3066 38.4512 68.2168C38.498 68.125 38.5215 68.0186 38.5215 67.8975C38.5215 67.7881 38.5 67.6914 38.457 67.6074C38.416 67.5215 38.3525 67.4551 38.2666 67.4082C38.1807 67.3594 38.0723 67.335 37.9414 67.335C37.8379 67.335 37.7422 67.3555 37.6543 67.3965C37.5664 67.4375 37.4961 67.4951 37.4434 67.5693C37.3906 67.6436 37.3643 67.7334 37.3643 67.8389H36.5176C36.5176 67.6045 36.5801 67.4004 36.7051 67.2266C36.832 67.0527 37.002 66.917 37.2148 66.8193C37.4277 66.7217 37.6621 66.6729 37.918 66.6729C38.207 66.6729 38.46 66.7197 38.6768 66.8135C38.8936 66.9053 39.0625 67.041 39.1836 67.2207C39.3047 67.4004 39.3652 67.623 39.3652 67.8887C39.3652 68.0234 39.334 68.1543 39.2715 68.2812C39.209 68.4062 39.1191 68.5195 39.002 68.6211C38.8867 68.7207 38.7461 68.8008 38.5801 68.8613C38.4141 68.9199 38.2275 68.9492 38.0205 68.9492H37.4346V68.501ZM37.4346 69.1426V68.7061H38.0205C38.2529 68.7061 38.457 68.7324 38.6328 68.7852C38.8086 68.8379 38.9561 68.9141 39.0752 69.0137C39.1943 69.1113 39.2842 69.2275 39.3447 69.3623C39.4053 69.4951 39.4355 69.6426 39.4355 69.8047C39.4355 70.0039 39.3975 70.1816 39.3213 70.3379C39.2451 70.4922 39.1377 70.623 38.999 70.7305C38.8623 70.8379 38.7021 70.9199 38.5186 70.9766C38.335 71.0312 38.1348 71.0586 37.918 71.0586C37.7383 71.0586 37.5615 71.0342 37.3877 70.9854C37.2158 70.9346 37.0596 70.8594 36.9189 70.7598C36.7803 70.6582 36.6689 70.5312 36.585 70.3789C36.5029 70.2246 36.4619 70.042 36.4619 69.8311H37.3086C37.3086 69.9404 37.3359 70.0381 37.3906 70.124C37.4453 70.21 37.5205 70.2773 37.6162 70.3262C37.7139 70.375 37.8223 70.3994 37.9414 70.3994C38.0762 70.3994 38.1914 70.375 38.2871 70.3262C38.3848 70.2754 38.459 70.2051 38.5098 70.1152C38.5625 70.0234 38.5889 69.917 38.5889 69.7959C38.5889 69.6396 38.5605 69.5146 38.5039 69.4209C38.4473 69.3252 38.3662 69.2549 38.2607 69.21C38.1553 69.165 38.0303 69.1426 37.8857 69.1426H37.4346Z" fill="white"/>
</svg>
